<?xml version="1.0" encoding="UTF-8" standalone="no"?>
<svg
   xmlns:dc="http://purl.org/dc/elements/1.1/"
   xmlns:cc="http://creativecommons.org/ns#"
   xmlns:rdf="http://www.w3.org/1999/02/22-rdf-syntax-ns#"
   xmlns:svg="http://www.w3.org/2000/svg"
   xmlns="http://www.w3.org/2000/svg"
   xmlns:sodipodi="http://sodipodi.sourceforge.net/DTD/sodipodi-0.dtd"
   xmlns:inkscape="http://www.inkscape.org/namespaces/inkscape"
   version="1.1"
   id="svg2"
   xml:space="preserve"
   width="329.64801"
   height="190.62399"
   viewBox="0 0 329.64801 190.62399"
   sodipodi:docname="repository_social.pdf"><metadata
     id="metadata8"><rdf:RDF><cc:Work
         rdf:about=""><dc:format>image/svg+xml</dc:format><dc:type
           rdf:resource="http://purl.org/dc/dcmitype/StillImage" /></cc:Work></rdf:RDF></metadata><defs
     id="defs6" /><sodipodi:namedview
     pagecolor="#ffffff"
     bordercolor="#666666"
     borderopacity="1"
     objecttolerance="10"
     gridtolerance="10"
     guidetolerance="10"
     inkscape:pageopacity="0"
     inkscape:pageshadow="2"
     inkscape:window-width="640"
     inkscape:window-height="480"
     id="namedview4" /><g
     id="g10"
     inkscape:groupmode="layer"
     inkscape:label="repository_social"
     transform="matrix(1.3333333,0,0,-1.3333333,0,190.624)"><g
       id="g12"
       transform="translate(89.054,99.83)"><g
         id="g14"><g
           id="g16"><g
             id="g18"><path
               d="M 12.45346,0 C 12.45346,6.87794 6.87794,12.45346 0,12.45346 -6.87794,12.45346 -12.45346,6.87794 -12.45346,0 c 0,-6.87794 5.57552,-12.45346 12.45346,-12.45346 6.87794,0 12.45346,5.57552 12.45346,12.45346 z"
               style="fill:none;stroke:#000000;stroke-width:0.3985;stroke-linecap:butt;stroke-linejoin:miter;stroke-miterlimit:10;stroke-dasharray:none;stroke-opacity:1"
               id="path20" /><g
               id="g22"
               transform="translate(-4.458,-1.176)"><g
                 id="g24"><g
                   id="g26"
                   transform="translate(-84.596,-98.654)"><text
                     transform="matrix(1,0,0,-1,84.596,98.654)"
                     style="font-variant:normal;font-weight:normal;font-size:9.9626px;font-family:CMMI10;-inkscape-font-specification:CMMI10;writing-mode:lr-tb;fill:#000000;fill-opacity:1;fill-rule:nonzero;stroke:none"
                     id="text30"><tspan
                       x="0"
                       y="0"
                       id="tspan28">q</tspan></text><text
                     transform="matrix(1,0,0,-1,89.043,96.861)"
                     style="font-variant:normal;font-weight:normal;font-size:6.9738px;font-family:CMR7;-inkscape-font-specification:CMR7;writing-mode:lr-tb;fill:#000000;fill-opacity:1;fill-rule:nonzero;stroke:none"
                     id="text34"><tspan
                       x="0"
                       y="0"
                       id="tspan32">1</tspan></text><g
                     id="g36"
                     transform="translate(84.596,98.654)" /></g></g><g
                 id="g38"
                 transform="translate(4.458,1.176)" /></g></g><g
             id="g40"><path
               d="m 69.14711,0 c 0,6.87794 -5.57553,12.45346 -12.45348,12.45346 -6.87796,0 -12.45347,-5.57552 -12.45347,-12.45346 0,-6.87794 5.57551,-12.45346 12.45347,-12.45346 6.87795,0 12.45348,5.57552 12.45348,12.45346 z"
               style="fill:none;stroke:#000000;stroke-width:0.3985;stroke-linecap:butt;stroke-linejoin:miter;stroke-miterlimit:10;stroke-dasharray:none;stroke-opacity:1"
               id="path42" /><g
               id="g44"
               transform="translate(52.235,-1.176)"><g
                 id="g46"><g
                   id="g48"
                   transform="translate(-141.289,-98.654)"><text
                     transform="matrix(1,0,0,-1,141.289,98.654)"
                     style="font-variant:normal;font-weight:normal;font-size:9.9626px;font-family:CMMI10;-inkscape-font-specification:CMMI10;writing-mode:lr-tb;fill:#000000;fill-opacity:1;fill-rule:nonzero;stroke:none"
                     id="text52"><tspan
                       x="0"
                       y="0"
                       id="tspan50">q</tspan></text><text
                     transform="matrix(1,0,0,-1,145.736,96.861)"
                     style="font-variant:normal;font-weight:normal;font-size:6.9738px;font-family:CMR7;-inkscape-font-specification:CMR7;writing-mode:lr-tb;fill:#000000;fill-opacity:1;fill-rule:nonzero;stroke:none"
                     id="text56"><tspan
                       x="0"
                       y="0"
                       id="tspan54">2</tspan></text><g
                     id="g58"
                     transform="translate(141.289,98.654)" /></g></g><g
                 id="g60"
                 transform="translate(-52.235,1.176)" /></g></g><g
             id="g62"><path
               d="m 125.84074,0 c 0,6.87794 -5.57553,12.45346 -12.45347,12.45346 -6.87796,0 -12.45348,-5.57552 -12.45348,-12.45346 0,-6.87794 5.57552,-12.45346 12.45348,-12.45346 6.87794,0 12.45347,5.57552 12.45347,12.45346 z"
               style="fill:none;stroke:#000000;stroke-width:0.3985;stroke-linecap:butt;stroke-linejoin:miter;stroke-miterlimit:10;stroke-dasharray:none;stroke-opacity:1"
               id="path64" /><g
               id="g66"
               transform="translate(108.928,-1.176)"><g
                 id="g68"><g
                   id="g70"
                   transform="translate(-197.982,-98.654)"><text
                     transform="matrix(1,0,0,-1,197.982,98.654)"
                     style="font-variant:normal;font-weight:normal;font-size:9.9626px;font-family:CMMI10;-inkscape-font-specification:CMMI10;writing-mode:lr-tb;fill:#000000;fill-opacity:1;fill-rule:nonzero;stroke:none"
                     id="text74"><tspan
                       x="0"
                       y="0"
                       id="tspan72">q</tspan></text><text
                     transform="matrix(1,0,0,-1,202.429,96.861)"
                     style="font-variant:normal;font-weight:normal;font-size:6.9738px;font-family:CMR7;-inkscape-font-specification:CMR7;writing-mode:lr-tb;fill:#000000;fill-opacity:1;fill-rule:nonzero;stroke:none"
                     id="text78"><tspan
                       x="0"
                       y="0"
                       id="tspan76">3</tspan></text><g
                     id="g80"
                     transform="translate(197.982,98.654)" /></g></g><g
                 id="g82"
                 transform="translate(-108.928,1.176)" /></g></g><g
             id="g84"><path
               d="m 69.14711,-56.69363 c 0,6.87796 -5.57553,12.45347 -12.45348,12.45347 -6.87796,0 -12.45347,-5.57551 -12.45347,-12.45347 0,-6.87795 5.57551,-12.45348 12.45347,-12.45348 6.87795,0 12.45348,5.57553 12.45348,12.45348 z"
               style="fill:none;stroke:#000000;stroke-width:0.3985;stroke-linecap:butt;stroke-linejoin:miter;stroke-miterlimit:10;stroke-dasharray:none;stroke-opacity:1"
               id="path86" /><g
               id="g88"
               transform="translate(52.235,-57.869)"><g
                 id="g90"><g
                   id="g92"
                   transform="translate(-141.289,-41.961)"><text
                     transform="matrix(1,0,0,-1,141.289,41.961)"
                     style="font-variant:normal;font-weight:normal;font-size:9.9626px;font-family:CMMI10;-inkscape-font-specification:CMMI10;writing-mode:lr-tb;fill:#000000;fill-opacity:1;fill-rule:nonzero;stroke:none"
                     id="text96"><tspan
                       x="0"
                       y="0"
                       id="tspan94">q</tspan></text><text
                     transform="matrix(1,0,0,-1,145.736,40.168)"
                     style="font-variant:normal;font-weight:normal;font-size:6.9738px;font-family:CMR7;-inkscape-font-specification:CMR7;writing-mode:lr-tb;fill:#000000;fill-opacity:1;fill-rule:nonzero;stroke:none"
                     id="text100"><tspan
                       x="0"
                       y="0"
                       id="tspan98">4</tspan></text><g
                     id="g102"
                     transform="translate(141.289,41.961)" /></g></g><g
                 id="g104"
                 transform="translate(-52.235,57.869)" /></g></g><g
             id="g106"><path
               d="m -44.24016,0 c 0,6.87794 -5.57551,12.45346 -12.45347,12.45346 -6.87795,0 -12.45348,-5.57552 -12.45348,-12.45346 0,-6.87794 5.57553,-12.45346 12.45348,-12.45346 6.87796,0 12.45347,5.57552 12.45347,12.45346 z"
               style="fill:none;stroke:#000000;stroke-width:0.3985;stroke-linecap:butt;stroke-linejoin:miter;stroke-miterlimit:10;stroke-dasharray:none;stroke-opacity:1"
               id="path108" /><g
               id="g110"
               transform="translate(-59.898,-2.145)"><g
                 id="g112"><g
                   id="g114"
                   transform="translate(-29.156,-97.685)"><text
                     transform="matrix(1,0,0,-1,29.156,97.685)"
                     style="font-variant:normal;font-weight:normal;font-size:9.9626px;font-family:CMMI10;-inkscape-font-specification:CMMI10;writing-mode:lr-tb;fill:#000000;fill-opacity:1;fill-rule:nonzero;stroke:none"
                     id="text118"><tspan
                       x="0"
                       y="0"
                       id="tspan116">α</tspan></text><g
                     id="g120"
                     transform="translate(29.156,97.685)" /></g></g><g
                 id="g122"
                 transform="translate(59.898,2.145)" /></g></g><g
             id="g124"><path
               d="m -82.21489,0 h 11.87227"
               style="fill:none;stroke:#000000;stroke-width:0.3985;stroke-linecap:butt;stroke-linejoin:miter;stroke-miterlimit:10;stroke-dasharray:none;stroke-opacity:1"
               id="path126" /><g
               id="g128"
               transform="translate(-70.34262)"><g
                 id="g130"><path
                   d="m 0.797,0 c -0.99625,0.19925 -1.99251,0.59775 -3.18802,1.29512 1.19551,-0.89662 1.19551,-1.69362 0,-2.59024 C -1.19551,-0.59775 -0.19925,-0.19925 0.797,0 Z"
                   style="fill:#000000;fill-opacity:1;fill-rule:nonzero;stroke:#000000;stroke-width:0.3985;stroke-linecap:butt;stroke-linejoin:round;stroke-miterlimit:10;stroke-dasharray:none;stroke-opacity:1"
                   id="path132" /></g></g><g
               id="g134"><g
                 id="g136"
                 transform="translate(-85.734)"><g
                   id="g138" /><g
                   id="g140"
                   transform="translate(85.734)" /></g></g></g><g
             id="g142"><g
               id="g144"><path
                 d="m -44.24016,-56.69363 c 0,6.87796 -5.57551,12.45347 -12.45347,12.45347 -6.87795,0 -12.45348,-5.57551 -12.45348,-12.45347 0,-6.87795 5.57553,-12.45348 12.45348,-12.45348 6.87796,0 12.45347,5.57553 12.45347,12.45348 z"
                 style="fill:none;stroke:#000000;stroke-width:1.39478;stroke-linecap:butt;stroke-linejoin:miter;stroke-miterlimit:10;stroke-dasharray:none;stroke-opacity:1"
                 id="path146" /><g
                 id="g148"><path
                   d="m -44.24016,-56.69363 c 0,6.87796 -5.57551,12.45347 -12.45347,12.45347 -6.87795,0 -12.45348,-5.57551 -12.45348,-12.45347 0,-6.87795 5.57553,-12.45348 12.45348,-12.45348 6.87796,0 12.45347,5.57553 12.45347,12.45348 z"
                   style="fill:none;stroke:#ffffff;stroke-width:0.59776;stroke-linecap:butt;stroke-linejoin:miter;stroke-miterlimit:10;stroke-dasharray:none;stroke-opacity:1"
                   id="path150" /></g></g><g
               id="g152"
               transform="translate(-59.773,-59.183)"><g
                 id="g154"><g
                   id="g156"
                   transform="translate(-29.281,-40.647)"><text
                     transform="matrix(1,0,0,-1,29.281,40.647)"
                     style="font-variant:normal;font-weight:normal;font-size:9.9626px;font-family:CMMI10;-inkscape-font-specification:CMMI10;writing-mode:lr-tb;fill:#000000;fill-opacity:1;fill-rule:nonzero;stroke:none"
                     id="text160"><tspan
                       x="0"
                       y="0"
                       id="tspan158">β</tspan></text><g
                     id="g162"
                     transform="translate(29.281,40.647)" /></g></g><g
                 id="g164"
                 transform="translate(59.773,59.183)" /></g></g><g
             id="g166"><g
               id="g168"
               transform="matrix(1.25,0,0,1.25,-33.803,-69.489)"><g
                 id="g170"><g
                   id="g172"
                   transform="translate(-55.251,-30.341)"><text
                     transform="matrix(1,0,0,-1,55.251,42.296)"
                     style="font-variant:normal;font-weight:normal;font-size:9.9626px;font-family:CMR10;-inkscape-font-specification:CMR10;writing-mode:lr-tb;fill:#000000;fill-opacity:1;fill-rule:nonzero;stroke:none"
                     id="text176"><tspan
                       x="0 7.1949897 9.9625998 15.22086"
                       y="0"
                       sodipodi:role="line"
                       id="tspan174">Tikz</tspan></text><g
                     id="g178"
                     transform="translate(76.56,42.795)"><g
                       id="g180"
                       transform="matrix(0.75,0,0,0.75,-57.42,-32.09625)"><text
                         transform="matrix(1,0,0,-1,76.56,42.795)"
                         style="font-variant:normal;font-weight:normal;font-size:9.9626px;font-family:Arial;-inkscape-font-specification:Arial;writing-mode:lr-tb;fill:#000000;fill-opacity:1;fill-rule:nonzero;stroke:none"
                         id="text184"><tspan
                           x="0"
                           y="0"
                           id="tspan182">°</tspan></text><g
                         id="g186"
                         transform="translate(76.56,42.795)" /></g><g
                       id="g188"
                       transform="translate(-76.56,-42.795)"><text
                         transform="matrix(1,0,0,-1,55.251,30.341)"
                         style="font-variant:normal;font-weight:normal;font-size:9.9626px;font-family:CMSY10;-inkscape-font-specification:CMSY10;writing-mode:lr-tb;fill:#000000;fill-opacity:1;fill-rule:nonzero;stroke:none"
                         id="text192"><tspan
                           x="0"
                           y="0"
                           id="tspan190">A</tspan></text><text
                         transform="matrix(1,0,0,-1,63.206,30.341)"
                         style="font-variant:normal;font-weight:normal;font-size:9.9626px;font-family:CMR10;-inkscape-font-specification:CMR10;writing-mode:lr-tb;fill:#000000;fill-opacity:1;fill-rule:nonzero;stroke:none"
                         id="text196"><tspan
                           x="0 5.5352206 9.4096756 14.390976 22.69281 27.67411 31.548565"
                           y="0"
                           sodipodi:role="line"
                           id="tspan194">utomota</tspan></text><g
                         id="g198"
                         transform="translate(55.251,30.341)" /></g></g></g></g><g
                 id="g200"
                 transform="translate(33.803,69.489)" /></g></g><g
             id="g202"><path
               d="m 10.95741,-6.32616 c 11.74561,-6.78131 23.03319,-6.78131 33.91602,-0.4981"
               style="fill:none;stroke:#000000;stroke-width:0.3985;stroke-linecap:butt;stroke-linejoin:miter;stroke-miterlimit:10;stroke-dasharray:none;stroke-opacity:1"
               id="path204" /><g
               id="g206"
               transform="matrix(0.86601,0.49998,-0.49998,0.86601,44.87343,-6.82428)"><g
                 id="g208"><path
                   d="m 0.797,0 c -0.99625,0.19925 -1.99251,0.59775 -3.18802,1.29512 1.19551,-0.89662 1.19551,-1.69362 0,-2.59024 C -1.19551,-0.59775 -0.19925,-0.19925 0.797,0 Z"
                   style="fill:#000000;fill-opacity:1;fill-rule:nonzero;stroke:#000000;stroke-width:0.3985;stroke-linecap:butt;stroke-linejoin:round;stroke-miterlimit:10;stroke-dasharray:none;stroke-opacity:1"
                   id="path210" /></g></g><g
               id="g212"><g
                 id="g214"
                 transform="translate(26.209,-21.85)"><g
                   id="g216"><g
                     id="g218"
                     transform="translate(-115.263,-77.98)"><text
                       transform="matrix(1,0,0,-1,115.263,77.98)"
                       style="font-variant:normal;font-weight:normal;font-size:9.9626px;font-family:CMMI10;-inkscape-font-specification:CMMI10;writing-mode:lr-tb;fill:#000000;fill-opacity:1;fill-rule:nonzero;stroke:none"
                       id="text222"><tspan
                         x="0"
                         y="0"
                         id="tspan220">b</tspan></text><g
                       id="g224"
                       transform="translate(115.263,77.98)" /></g></g><g
                   id="g226"
                   transform="translate(-26.209,21.85)" /></g></g></g><g
             id="g228"><path
               d="M 45.7362,6.32616 C 33.9906,13.10747 22.70302,13.10747 11.82019,6.82426"
               style="fill:none;stroke:#000000;stroke-width:0.3985;stroke-linecap:butt;stroke-linejoin:miter;stroke-miterlimit:10;stroke-dasharray:none;stroke-opacity:1"
               id="path230" /><g
               id="g232"
               transform="matrix(-0.86601,-0.49998,0.49998,-0.86601,11.82019,6.82428)"><g
                 id="g234"><path
                   d="m 0.797,0 c -0.99625,0.19925 -1.99251,0.59775 -3.18802,1.29512 1.19551,-0.89662 1.19551,-1.69362 0,-2.59024 C -1.19551,-0.59775 -0.19925,-0.19925 0.797,0 Z"
                   style="fill:#000000;fill-opacity:1;fill-rule:nonzero;stroke:#000000;stroke-width:0.3985;stroke-linecap:butt;stroke-linejoin:round;stroke-miterlimit:10;stroke-dasharray:none;stroke-opacity:1"
                   id="path236" /></g></g><g
               id="g238"><g
                 id="g240"
                 transform="translate(25.713,14.932)"><g
                   id="g242"><g
                     id="g244"
                     transform="translate(-114.767,-114.762)"><text
                       transform="matrix(1,0,0,-1,114.767,114.762)"
                       style="font-variant:normal;font-weight:normal;font-size:9.9626px;font-family:CMMI10;-inkscape-font-specification:CMMI10;writing-mode:lr-tb;fill:#000000;fill-opacity:1;fill-rule:nonzero;stroke:none"
                       id="text248"><tspan
                         x="0"
                         y="0"
                         id="tspan246">a</tspan></text><g
                       id="g250"
                       transform="translate(114.767,114.762)" /></g></g><g
                   id="g252"
                   transform="translate(-25.713,-14.932)" /></g></g></g><g
             id="g254"><path
               d="M 69.34636,0 H 99.73827"
               style="fill:none;stroke:#000000;stroke-width:0.3985;stroke-linecap:butt;stroke-linejoin:miter;stroke-miterlimit:10;stroke-dasharray:none;stroke-opacity:1"
               id="path256" /><g
               id="g258"
               transform="translate(99.73827)"><g
                 id="g260"><path
                   d="m 0.797,0 c -0.99625,0.19925 -1.99251,0.59775 -3.18802,1.29512 1.19551,-0.89662 1.19551,-1.69362 0,-2.59024 C -1.19551,-0.59775 -0.19925,-0.19925 0.797,0 Z"
                   style="fill:#000000;fill-opacity:1;fill-rule:nonzero;stroke:#000000;stroke-width:0.3985;stroke-linecap:butt;stroke-linejoin:round;stroke-miterlimit:10;stroke-dasharray:none;stroke-opacity:1"
                   id="path262" /></g></g><g
               id="g264"><g
                 id="g266"
                 transform="translate(82.902,3.52)"><g
                   id="g268"><g
                     id="g270"
                     transform="translate(-171.956,-103.35)"><text
                       transform="matrix(1,0,0,-1,171.956,103.35)"
                       style="font-variant:normal;font-weight:normal;font-size:9.9626px;font-family:CMMI10;-inkscape-font-specification:CMMI10;writing-mode:lr-tb;fill:#000000;fill-opacity:1;fill-rule:nonzero;stroke:none"
                       id="text274"><tspan
                         x="0"
                         y="0"
                         id="tspan272">b</tspan></text><g
                       id="g276"
                       transform="translate(171.956,103.35)" /></g></g><g
                   id="g278"
                   transform="translate(-82.902,-3.52)" /></g></g></g><g
             id="g280"><path
               d="M 108.04013,-11.4671 C 98.70795,-31.48021 88.17384,-42.01431 69.06364,-50.92548"
               style="fill:none;stroke:#000000;stroke-width:0.3985;stroke-linecap:butt;stroke-linejoin:miter;stroke-miterlimit:10;stroke-dasharray:none;stroke-opacity:1"
               id="path282" /><g
               id="g284"
               transform="matrix(-0.9063,-0.4226,0.4226,-0.9063,69.06364,-50.92546)"><g
                 id="g286"><path
                   d="m 0.797,0 c -0.99625,0.19925 -1.99251,0.59775 -3.18802,1.29512 1.19551,-0.89662 1.19551,-1.69362 0,-2.59024 C -1.19551,-0.59775 -0.19925,-0.19925 0.797,0 Z"
                   style="fill:#000000;fill-opacity:1;fill-rule:nonzero;stroke:#000000;stroke-width:0.3985;stroke-linecap:butt;stroke-linejoin:round;stroke-miterlimit:10;stroke-dasharray:none;stroke-opacity:1"
                   id="path288" /></g></g><g
               id="g290"><g
                 id="g292"
                 transform="translate(95.624,-37.556)"><g
                   id="g294"><g
                     id="g296"
                     transform="translate(-184.678,-62.274)"><text
                       transform="matrix(1,0,0,-1,184.678,62.274)"
                       style="font-variant:normal;font-weight:normal;font-size:9.9626px;font-family:CMMI10;-inkscape-font-specification:CMMI10;writing-mode:lr-tb;fill:#000000;fill-opacity:1;fill-rule:nonzero;stroke:none"
                       id="text300"><tspan
                         x="0"
                         y="0"
                         id="tspan298">a</tspan></text><g
                       id="g302"
                       transform="translate(184.678,62.274)" /></g></g><g
                   id="g304"
                   transform="translate(-95.624,37.556)" /></g></g></g><g
             id="g306"><path
               d="M 44.0409,-56.69363 C 24.53195,-56.69363 0,-32.16167 0,-13.64899"
               style="fill:none;stroke:#000000;stroke-width:0.3985;stroke-linecap:butt;stroke-linejoin:miter;stroke-miterlimit:10;stroke-dasharray:none;stroke-opacity:1"
               id="path308" /><g
               id="g310"
               transform="rotate(90,6.824495,-6.824495)"><g
                 id="g312"><path
                   d="m 0.797,0 c -0.99625,0.19925 -1.99251,0.59775 -3.18802,1.29512 1.19551,-0.89662 1.19551,-1.69362 0,-2.59024 C -1.19551,-0.59775 -0.19925,-0.19925 0.797,0 Z"
                   style="fill:#000000;fill-opacity:1;fill-rule:nonzero;stroke:#000000;stroke-width:0.3985;stroke-linecap:butt;stroke-linejoin:round;stroke-miterlimit:10;stroke-dasharray:none;stroke-opacity:1"
                   id="path314" /></g></g><g
               id="g316"><g
                 id="g318"
                 transform="translate(6.909,-45.447)"><g
                   id="g320"><g
                     id="g322"
                     transform="translate(-95.963,-54.383)"><text
                       transform="matrix(1,0,0,-1,95.963,54.383)"
                       style="font-variant:normal;font-weight:normal;font-size:9.9626px;font-family:CMMI10;-inkscape-font-specification:CMMI10;writing-mode:lr-tb;fill:#000000;fill-opacity:1;fill-rule:nonzero;stroke:none"
                       id="text326"><tspan
                         x="0"
                         y="0"
                         id="tspan324">b</tspan></text><g
                       id="g328"
                       transform="translate(95.963,54.383)" /></g></g><g
                   id="g330"
                   transform="translate(-6.909,45.447)" /></g></g></g><g
             id="g332"><path
               d="M 3.27438,-12.22159 C 9.17854,-34.25609 22.43753,-47.51508 43.5097,-53.16144"
               style="fill:none;stroke:#000000;stroke-width:0.3985;stroke-linecap:butt;stroke-linejoin:miter;stroke-miterlimit:10;stroke-dasharray:none;stroke-opacity:1"
               id="path334" /><g
               id="g336"
               transform="matrix(0.96593,-0.25879,0.25879,0.96593,43.5097,-53.16142)"><g
                 id="g338"><path
                   d="m 0.797,0 c -0.99625,0.19925 -1.99251,0.59775 -3.18802,1.29512 1.19551,-0.89662 1.19551,-1.69362 0,-2.59024 C -1.19551,-0.59775 -0.19925,-0.19925 0.797,0 Z"
                   style="fill:#000000;fill-opacity:1;fill-rule:nonzero;stroke:#000000;stroke-width:0.3985;stroke-linecap:butt;stroke-linejoin:round;stroke-miterlimit:10;stroke-dasharray:none;stroke-opacity:1"
                   id="path340" /></g></g><g
               id="g342"><g
                 id="g344"
                 transform="translate(21.344,-41.641)"><g
                   id="g346"><g
                     id="g348"
                     transform="translate(-110.398,-58.189)"><text
                       transform="matrix(1,0,0,-1,110.398,58.189)"
                       style="font-variant:normal;font-weight:normal;font-size:9.9626px;font-family:Arial;-inkscape-font-specification:Arial;writing-mode:lr-tb;fill:#000000;fill-opacity:1;fill-rule:nonzero;stroke:none"
                       id="text352"><tspan
                         x="0"
                         y="0"
                         id="tspan350">o</tspan></text><g
                       id="g354"
                       transform="translate(110.398,58.189)" /></g></g><g
                   id="g356"
                   transform="translate(-21.344,41.641)" /></g></g></g><g
             id="g358"><path
               d="M 56.69363,-13.64899 V -43.04463"
               style="fill:none;stroke:#000000;stroke-width:0.3985;stroke-linecap:butt;stroke-linejoin:miter;stroke-miterlimit:10;stroke-dasharray:none;stroke-opacity:1"
               id="path360" /><g
               id="g362"
               transform="rotate(90,35.17131,21.52232)"><g
                 id="g364"><path
                   d="m 0.797,0 c -0.99625,0.19925 -1.99251,0.59775 -3.18802,1.29512 1.19551,-0.89662 1.19551,-1.69362 0,-2.59024 C -1.19551,-0.59775 -0.19925,-0.19925 0.797,0 Z"
                   style="fill:#000000;fill-opacity:1;fill-rule:nonzero;stroke:#000000;stroke-width:0.3985;stroke-linecap:butt;stroke-linejoin:round;stroke-miterlimit:10;stroke-dasharray:none;stroke-opacity:1"
                   id="path366" /></g></g><g
               id="g368"
               transform="rotate(-90,6.8245,-49.86913)"><g
                 id="g370"><path
                   d="m 0.797,0 c -0.99625,0.19925 -1.99251,0.59775 -3.18802,1.29512 1.19551,-0.89662 1.19551,-1.69362 0,-2.59024 C -1.19551,-0.59775 -0.19925,-0.19925 0.797,0 Z"
                   style="fill:#000000;fill-opacity:1;fill-rule:nonzero;stroke:#000000;stroke-width:0.3985;stroke-linecap:butt;stroke-linejoin:round;stroke-miterlimit:10;stroke-dasharray:none;stroke-opacity:1"
                   id="path372" /></g></g><g
               id="g374"><g
                 id="g376"
                 transform="translate(45.402,-31.118)"><g
                   id="g378"><g
                     id="g380"
                     transform="translate(-134.456,-68.712)"><text
                       transform="matrix(1,0,0,-1,134.456,68.712)"
                       style="font-variant:normal;font-weight:normal;font-size:9.9626px;font-family:Arial;-inkscape-font-specification:Arial;writing-mode:lr-tb;fill:#000000;fill-opacity:1;fill-rule:nonzero;stroke:none"
                       id="text384"><tspan
                         x="0"
                         y="0"
                         id="tspan382">o</tspan></text><g
                       id="g386"
                       transform="translate(134.456,68.712)" /></g></g><g
                   id="g388"
                   transform="translate(-45.402,31.118)" /></g></g></g><g
             id="g390"><path
               d="m 62.04076,-45.22652 c 9.33218,20.01311 19.86628,30.54722 38.97648,39.45838"
               style="fill:none;stroke:#000000;stroke-width:0.3985;stroke-linecap:butt;stroke-linejoin:miter;stroke-miterlimit:10;stroke-dasharray:none;stroke-opacity:1"
               id="path392" /><g
               id="g394"
               transform="matrix(0.9063,0.4226,-0.4226,0.9063,101.01724,-5.76816)"><g
                 id="g396"><path
                   d="m 0.797,0 c -0.99625,0.19925 -1.99251,0.59775 -3.18802,1.29512 1.19551,-0.89662 1.19551,-1.69362 0,-2.59024 C -1.19551,-0.59775 -0.19925,-0.19925 0.797,0 Z"
                   style="fill:#000000;fill-opacity:1;fill-rule:nonzero;stroke:#000000;stroke-width:0.3985;stroke-linecap:butt;stroke-linejoin:round;stroke-miterlimit:10;stroke-dasharray:none;stroke-opacity:1"
                   id="path398" /></g></g><g
               id="g400"><g
                 id="g402"
                 transform="translate(66.683,-24.053)"><g
                   id="g404"><g
                     id="g406"
                     transform="translate(-155.737,-75.777)"><text
                       transform="matrix(1,0,0,-1,155.737,75.777)"
                       style="font-variant:normal;font-weight:normal;font-size:9.9626px;font-family:Arial;-inkscape-font-specification:Arial;writing-mode:lr-tb;fill:#000000;fill-opacity:1;fill-rule:nonzero;stroke:none"
                       id="text410"><tspan
                         x="0"
                         y="0"
                         id="tspan408">o</tspan></text><g
                       id="g412"
                       transform="translate(155.737,75.777)" /></g></g><g
                   id="g414"
                   transform="translate(-66.683,24.053)" /></g></g></g><g
             id="g416"><path
               d="M 104.44043,8.94682 C 93.74133,19.64592 76.33955,19.64592 66.34492,9.65129"
               style="fill:none;stroke:#000000;stroke-width:0.3985;stroke-linecap:butt;stroke-linejoin:miter;stroke-miterlimit:10;stroke-dasharray:none;stroke-opacity:1"
               id="path418" /><g
               id="g420"
               transform="matrix(-0.7071,-0.7071,0.7071,-0.7071,66.34494,9.6513)"><g
                 id="g422"><path
                   d="m 0.797,0 c -0.99625,0.19925 -1.99251,0.59775 -3.18802,1.29512 1.19551,-0.89662 1.19551,-1.69362 0,-2.59024 C -1.19551,-0.59775 -0.19925,-0.19925 0.797,0 Z"
                   style="fill:#000000;fill-opacity:1;fill-rule:nonzero;stroke:#000000;stroke-width:0.3985;stroke-linecap:butt;stroke-linejoin:round;stroke-miterlimit:10;stroke-dasharray:none;stroke-opacity:1"
                   id="path424" /></g></g><g
               id="g426"><g
                 id="g428"
                 transform="translate(81.154,20.775)"><g
                   id="g430"><g
                     id="g432"
                     transform="translate(-170.208,-120.605)"><text
                       transform="matrix(1,0,0,-1,170.208,120.605)"
                       style="font-variant:normal;font-weight:normal;font-size:9.9626px;font-family:Arial;-inkscape-font-specification:Arial;writing-mode:lr-tb;fill:#000000;fill-opacity:1;fill-rule:nonzero;stroke:none"
                       id="text436"><tspan
                         x="0"
                         y="0"
                         id="tspan434">o</tspan></text><g
                       id="g438"
                       transform="translate(170.208,120.605)" /></g></g><g
                   id="g440"
                   transform="translate(-81.154,-20.775)" /></g></g></g><g
             id="g442"><path
               d="m -44.0409,0 h 30.39191"
               style="fill:none;stroke:#000000;stroke-width:0.3985;stroke-linecap:butt;stroke-linejoin:miter;stroke-miterlimit:10;stroke-dasharray:none;stroke-opacity:1"
               id="path444" /><g
               id="g446"
               transform="translate(-13.64899)"><g
                 id="g448"><path
                   d="m 0.797,0 c -0.99625,0.19925 -1.99251,0.59775 -3.18802,1.29512 1.19551,-0.89662 1.19551,-1.69362 0,-2.59024 C -1.19551,-0.59775 -0.19925,-0.19925 0.797,0 Z"
                   style="fill:#000000;fill-opacity:1;fill-rule:nonzero;stroke:#000000;stroke-width:0.3985;stroke-linecap:butt;stroke-linejoin:round;stroke-miterlimit:10;stroke-dasharray:none;stroke-opacity:1"
                   id="path450" /></g></g><g
               id="g452"><g
                 id="g454"
                 transform="translate(-30.368,3.52)"><g
                   id="g456"><g
                     id="g458"
                     transform="translate(-58.686,-103.35)"><text
                       transform="matrix(1,0,0,-1,58.686,103.35)"
                       style="font-variant:normal;font-weight:normal;font-size:9.9626px;font-family:CMMI10;-inkscape-font-specification:CMMI10;writing-mode:lr-tb;fill:#000000;fill-opacity:1;fill-rule:nonzero;stroke:none"
                       id="text462"><tspan
                         x="0"
                         y="0"
                         id="tspan460"></tspan></text><g
                       id="g464"
                       transform="translate(58.686,103.35)" /></g></g><g
                   id="g466"
                   transform="translate(30.368,-3.52)" /></g></g></g><g
             id="g468"><path
               d="M -8.94682,-8.94682 -46.831,-46.831"
               style="fill:none;stroke:#000000;stroke-width:0.3985;stroke-linecap:butt;stroke-linejoin:miter;stroke-miterlimit:10;stroke-dasharray:none;stroke-opacity:1"
               id="path470" /><g
               id="g472"
               transform="matrix(-0.7071,-0.7071,0.7071,-0.7071,-46.83098,-46.83098)"><g
                 id="g474"><path
                   d="m 0.797,0 c -0.99625,0.19925 -1.99251,0.59775 -3.18802,1.29512 1.19551,-0.89662 1.19551,-1.69362 0,-2.59024 C -1.19551,-0.59775 -0.19925,-0.19925 0.797,0 Z"
                   style="fill:#000000;fill-opacity:1;fill-rule:nonzero;stroke:#000000;stroke-width:0.3985;stroke-linecap:butt;stroke-linejoin:round;stroke-miterlimit:10;stroke-dasharray:none;stroke-opacity:1"
                   id="path476" /></g></g><g
               id="g478"><g
                 id="g480"
                 transform="translate(-35.804,-24.721)"><g
                   id="g482"><g
                     id="g484"
                     transform="translate(-53.25,-75.109)"><text
                       transform="matrix(1,0,0,-1,53.25,75.109)"
                       style="font-variant:normal;font-weight:normal;font-size:9.9626px;font-family:CMMI10;-inkscape-font-specification:CMMI10;writing-mode:lr-tb;fill:#000000;fill-opacity:1;fill-rule:nonzero;stroke:none"
                       id="text488"><tspan
                         x="0"
                         y="0"
                         id="tspan486"></tspan></text><g
                       id="g490"
                       transform="translate(53.25,75.109)" /></g></g><g
                   id="g492"
                   transform="translate(35.804,24.721)" /></g></g></g><g
             id="g494"><path
               d="M -56.69363,-12.65273 V -42.74576"
               style="fill:none;stroke:#000000;stroke-width:0.3985;stroke-linecap:butt;stroke-linejoin:miter;stroke-miterlimit:10;stroke-dasharray:none;stroke-opacity:1"
               id="path496" /><g
               id="g498"
               transform="rotate(-90,-49.719695,6.973935)"><g
                 id="g500"><path
                   d="m 0.797,0 c -0.99625,0.19925 -1.99251,0.59775 -3.18802,1.29512 1.19551,-0.89662 1.19551,-1.69362 0,-2.59024 C -1.19551,-0.59775 -0.19925,-0.19925 0.797,0 Z"
                   style="fill:#000000;fill-opacity:1;fill-rule:nonzero;stroke:#000000;stroke-width:0.3985;stroke-linecap:butt;stroke-linejoin:round;stroke-miterlimit:10;stroke-dasharray:none;stroke-opacity:1"
                   id="path502" /></g></g><g
               id="g504"><g
                 id="g506"
                 transform="translate(-67.984,-30.969)"><g
                   id="g508"><g
                     id="g510"
                     transform="translate(-21.07,-68.861)"><text
                       transform="matrix(1,0,0,-1,21.07,68.861)"
                       style="font-variant:normal;font-weight:normal;font-size:9.9626px;font-family:Arial;-inkscape-font-specification:Arial;writing-mode:lr-tb;fill:#000000;fill-opacity:1;fill-rule:nonzero;stroke:none"
                       id="text514"><tspan
                         x="0"
                         y="0"
                         id="tspan512">o</tspan></text><g
                       id="g516"
                       transform="translate(21.07,68.861)" /></g></g><g
                   id="g518"
                   transform="translate(67.984,30.969)" /></g></g></g><g
             id="g520"><path
               d="M -6.32616,10.95741 C -21.12746,36.5946 21.12746,36.5946 6.82426,11.82019"
               style="fill:none;stroke:#000000;stroke-width:0.3985;stroke-linecap:butt;stroke-linejoin:miter;stroke-miterlimit:10;stroke-dasharray:none;stroke-opacity:1"
               id="path522" /><g
               id="g524"
               transform="matrix(-0.49998,-0.86601,0.86601,-0.49998,6.82428,11.82019)"><g
                 id="g526"><path
                   d="m 0.797,0 c -0.99625,0.19925 -1.99251,0.59775 -3.18802,1.29512 1.19551,-0.89662 1.19551,-1.69362 0,-2.59024 C -1.19551,-0.59775 -0.19925,-0.19925 0.797,0 Z"
                   style="fill:#000000;fill-opacity:1;fill-rule:nonzero;stroke:#000000;stroke-width:0.3985;stroke-linecap:butt;stroke-linejoin:round;stroke-miterlimit:10;stroke-dasharray:none;stroke-opacity:1"
                   id="path528" /></g></g><g
               id="g530"><g
                 id="g532"
                 transform="translate(-3.885,33.989)"><g
                   id="g534"><g
                     id="g536"
                     transform="translate(-85.169,-133.819)"><text
                       transform="matrix(1,0,0,-1,85.169,133.819)"
                       style="font-variant:normal;font-weight:normal;font-size:9.9626px;font-family:Arial;-inkscape-font-specification:Arial;writing-mode:lr-tb;fill:#000000;fill-opacity:1;fill-rule:nonzero;stroke:none"
                       id="text540"><tspan
                         x="0"
                         y="0"
                         id="tspan538">o</tspan></text><g
                       id="g542"
                       transform="translate(85.169,133.819)" /></g></g><g
                   id="g544"
                   transform="translate(3.885,-33.989)" /></g></g></g><g
             id="g546"><path
               d="M 50.36746,10.95741 C 35.56616,36.5946 77.82109,36.5946 63.5179,11.82019"
               style="fill:none;stroke:#000000;stroke-width:0.3985;stroke-linecap:butt;stroke-linejoin:miter;stroke-miterlimit:10;stroke-dasharray:none;stroke-opacity:1"
               id="path548" /><g
               id="g550"
               transform="matrix(-0.49998,-0.86601,0.86601,-0.49998,63.51791,11.82019)"><g
                 id="g552"><path
                   d="m 0.797,0 c -0.99625,0.19925 -1.99251,0.59775 -3.18802,1.29512 1.19551,-0.89662 1.19551,-1.69362 0,-2.59024 C -1.19551,-0.59775 -0.19925,-0.19925 0.797,0 Z"
                   style="fill:#000000;fill-opacity:1;fill-rule:nonzero;stroke:#000000;stroke-width:0.3985;stroke-linecap:butt;stroke-linejoin:round;stroke-miterlimit:10;stroke-dasharray:none;stroke-opacity:1"
                   id="path554" /></g></g><g
               id="g556"><g
                 id="g558"
                 transform="translate(52.808,33.989)"><g
                   id="g560"><g
                     id="g562"
                     transform="translate(-141.862,-133.819)"><text
                       transform="matrix(1,0,0,-1,141.862,133.819)"
                       style="font-variant:normal;font-weight:normal;font-size:9.9626px;font-family:Arial;-inkscape-font-specification:Arial;writing-mode:lr-tb;fill:#000000;fill-opacity:1;fill-rule:nonzero;stroke:none"
                       id="text566"><tspan
                         x="0"
                         y="0"
                         id="tspan564">o</tspan></text><g
                       id="g568"
                       transform="translate(141.862,133.819)" /></g></g><g
                   id="g570"
                   transform="translate(-52.808,-33.989)" /></g></g></g><g
             id="g572"><path
               d="m 124.34468,6.32616 c 25.63719,14.8013 25.63719,-27.45362 0.86278,-13.15042"
               style="fill:none;stroke:#000000;stroke-width:0.3985;stroke-linecap:butt;stroke-linejoin:miter;stroke-miterlimit:10;stroke-dasharray:none;stroke-opacity:1"
               id="path574" /><g
               id="g576"
               transform="matrix(-0.86601,0.49998,-0.49998,-0.86601,125.20746,-6.82428)"><g
                 id="g578"><path
                   d="m 0.797,0 c -0.99625,0.19925 -1.99251,0.59775 -3.18802,1.29512 1.19551,-0.89662 1.19551,-1.69362 0,-2.59024 C -1.19551,-0.59775 -0.19925,-0.19925 0.797,0 Z"
                   style="fill:#000000;fill-opacity:1;fill-rule:nonzero;stroke:#000000;stroke-width:0.3985;stroke-linecap:butt;stroke-linejoin:round;stroke-miterlimit:10;stroke-dasharray:none;stroke-opacity:1"
                   id="path580" /></g></g><g
               id="g582"><g
                 id="g584"
                 transform="translate(147.091,-2.772)"><g
                   id="g586"><g
                     id="g588"
                     transform="translate(-236.145,-97.058)"><text
                       transform="matrix(1,0,0,-1,236.145,97.058)"
                       style="font-variant:normal;font-weight:normal;font-size:9.9626px;font-family:Arial;-inkscape-font-specification:Arial;writing-mode:lr-tb;fill:#000000;fill-opacity:1;fill-rule:nonzero;stroke:none"
                       id="text592"><tspan
                         x="0"
                         y="0"
                         id="tspan590">o</tspan></text><g
                       id="g594"
                       transform="translate(236.145,97.058)" /></g></g><g
                   id="g596"
                   transform="translate(-147.091,2.772)" /></g></g></g><g
             id="g598"><path
               d="M 50.36746,-67.65105 C 35.56616,-93.28824 77.82109,-93.28824 63.5179,-68.51382"
               style="fill:none;stroke:#000000;stroke-width:0.3985;stroke-linecap:butt;stroke-linejoin:miter;stroke-miterlimit:10;stroke-dasharray:none;stroke-opacity:1"
               id="path600" /><g
               id="g602"
               transform="matrix(-0.49998,0.86601,-0.86601,-0.49998,63.51791,-68.51382)"><g
                 id="g604"><path
                   d="m 0.797,0 c -0.99625,0.19925 -1.99251,0.59775 -3.18802,1.29512 1.19551,-0.89662 1.19551,-1.69362 0,-2.59024 C -1.19551,-0.59775 -0.19925,-0.19925 0.797,0 Z"
                   style="fill:#000000;fill-opacity:1;fill-rule:nonzero;stroke:#000000;stroke-width:0.3985;stroke-linecap:butt;stroke-linejoin:round;stroke-miterlimit:10;stroke-dasharray:none;stroke-opacity:1"
                   id="path606" /></g></g><g
               id="g608"><g
                 id="g610"
                 transform="translate(52.808,-96.226)"><g
                   id="g612"><g
                     id="g614"
                     transform="translate(-141.862,-3.604)"><text
                       transform="matrix(1,0,0,-1,141.862,3.604)"
                       style="font-variant:normal;font-weight:normal;font-size:9.9626px;font-family:Arial;-inkscape-font-specification:Arial;writing-mode:lr-tb;fill:#000000;fill-opacity:1;fill-rule:nonzero;stroke:none"
                       id="text618"><tspan
                         x="0"
                         y="0"
                         id="tspan616">o</tspan></text><g
                       id="g620"
                       transform="translate(141.862,3.604)" /></g></g><g
                   id="g622"
                   transform="translate(-52.808,96.226)" /></g></g></g></g></g></g></g></svg>
